<svg width="64" height="64" viewBox="0 0 64 64" fill="none" xmlns="http://www.w3.org/2000/svg">
<rect x="0.5" y="0.5" width="63" height="63" rx="9.5" fill="#0F52BA"/>
<path d="M25.3333 28.6667L32 35.3333L38.6667 28.6667M18.6667 17H45.3333C46.2174 17 47.0652 17.3512 47.6904 17.9763C48.3155 18.6014 48.6667 19.4493 48.6667 20.3333V30.3333C48.6667 34.7536 46.9107 38.9928 43.7851 42.1184C40.6595 45.2441 36.4203 47 32 47C29.8113 47 27.644 46.5689 25.6219 45.7313C23.5998 44.8937 21.7625 43.6661 20.2149 42.1184C17.0893 38.9928 15.3333 34.7536 15.3333 30.3333V20.3333C15.3333 19.4493 15.6845 18.6014 16.3096 17.9763C16.9348 17.3512 17.7826 17 18.6667 17Z" stroke="#DEE5F0" stroke-width="2" stroke-linecap="round" stroke-linejoin="round"/>
<rect x="0.5" y="0.5" width="63" height="63" rx="9.5" stroke="#99B4DD"/>
</svg>
